<?xml version="1.0" encoding="UTF-8" standalone="no"?>
<!DOCTYPE svg PUBLIC "-//W3C//DTD SVG 1.1//EN"
 "http://www.w3.org/Graphics/SVG/1.1/DTD/svg11.dtd">
<!-- Generated by graphviz version 12.2.1 (20241206.2353)
 -->
<!-- Title: G Pages: 1 -->
<svg width="757pt" height="571pt"
 viewBox="0.00 0.00 756.95 570.95" xmlns="http://www.w3.org/2000/svg" xmlns:xlink="http://www.w3.org/1999/xlink">
<g id="graph0" class="graph" transform="scale(1 1) rotate(0) translate(21.6 549.35)">
<title>G</title>
<polygon fill="#111111" stroke="none" points="-21.6,21.6 -21.6,-549.35 735.35,-549.35 735.35,21.6 -21.6,21.6"/>
<!-- calendar/application/ports/calendar&#45;repository.interface.ts -->
<g id="node1" class="node">
<title>calendar/application/ports/calendar&#45;repository.interface.ts</title>
<path fill="none" stroke="#cfffac" d="M358.71,-23.75C358.71,-23.75 16.54,-23.75 16.54,-23.75 12.58,-23.75 8.62,-19.79 8.62,-15.83 8.62,-15.83 8.62,-7.92 8.62,-7.92 8.62,-3.96 12.58,0 16.54,0 16.54,0 358.71,0 358.71,0 362.67,0 366.62,-3.96 366.62,-7.92 366.62,-7.92 366.62,-15.83 366.62,-15.83 366.62,-19.79 362.67,-23.75 358.71,-23.75"/>
<text text-anchor="middle" x="187.62" y="-6.45" font-family="Arial" font-size="14.00" fill="#cfffac">calendar/application/ports/calendar&#45;repository.interface.ts</text>
</g>
<!-- calendar/application/ports/event&#45;repository.interface.ts -->
<g id="node2" class="node">
<title>calendar/application/ports/event&#45;repository.interface.ts</title>
<path fill="none" stroke="#cfffac" d="M349.33,-65.75C349.33,-65.75 25.92,-65.75 25.92,-65.75 21.96,-65.75 18,-61.79 18,-57.83 18,-57.83 18,-49.92 18,-49.92 18,-45.96 21.96,-42 25.92,-42 25.92,-42 349.33,-42 349.33,-42 353.29,-42 357.25,-45.96 357.25,-49.92 357.25,-49.92 357.25,-57.83 357.25,-57.83 357.25,-61.79 353.29,-65.75 349.33,-65.75"/>
<text text-anchor="middle" x="187.62" y="-48.45" font-family="Arial" font-size="14.00" fill="#cfffac">calendar/application/ports/event&#45;repository.interface.ts</text>
</g>
<!-- calendar/application/ports/venue&#45;repository.interface.ts -->
<g id="node3" class="node">
<title>calendar/application/ports/venue&#45;repository.interface.ts</title>
<path fill="none" stroke="#cfffac" d="M351.21,-107.75C351.21,-107.75 24.04,-107.75 24.04,-107.75 20.08,-107.75 16.12,-103.79 16.12,-99.83 16.12,-99.83 16.12,-91.92 16.12,-91.92 16.12,-87.96 20.08,-84 24.04,-84 24.04,-84 351.21,-84 351.21,-84 355.17,-84 359.12,-87.96 359.12,-91.92 359.12,-91.92 359.12,-99.83 359.12,-99.83 359.12,-103.79 355.17,-107.75 351.21,-107.75"/>
<text text-anchor="middle" x="187.62" y="-90.45" font-family="Arial" font-size="14.00" fill="#cfffac">calendar/application/ports/venue&#45;repository.interface.ts</text>
</g>
<!-- calendar/domain/services/venue&#45;availibility.service.ts -->
<g id="node4" class="node">
<title>calendar/domain/services/venue&#45;availibility.service.ts</title>
<path fill="none" stroke="#cfffac" d="M345.96,-149.75C345.96,-149.75 29.29,-149.75 29.29,-149.75 25.33,-149.75 21.38,-145.79 21.38,-141.83 21.38,-141.83 21.38,-133.92 21.38,-133.92 21.38,-129.96 25.33,-126 29.29,-126 29.29,-126 345.96,-126 345.96,-126 349.92,-126 353.88,-129.96 353.88,-133.92 353.88,-133.92 353.88,-141.83 353.88,-141.83 353.88,-145.79 349.92,-149.75 345.96,-149.75"/>
<text text-anchor="middle" x="187.62" y="-132.45" font-family="Arial" font-size="14.00" fill="#cfffac">calendar/domain/services/venue&#45;availibility.service.ts</text>
</g>
<!-- calendar/domain/value&#45;objects/slot.ts -->
<g id="node5" class="node">
<title>calendar/domain/value&#45;objects/slot.ts</title>
<path fill="none" stroke="#cfffac" d="M299.08,-191.75C299.08,-191.75 76.17,-191.75 76.17,-191.75 72.21,-191.75 68.25,-187.79 68.25,-183.83 68.25,-183.83 68.25,-175.92 68.25,-175.92 68.25,-171.96 72.21,-168 76.17,-168 76.17,-168 299.08,-168 299.08,-168 303.04,-168 307,-171.96 307,-175.92 307,-175.92 307,-183.83 307,-183.83 307,-187.79 303.04,-191.75 299.08,-191.75"/>
<text text-anchor="middle" x="187.62" y="-174.45" font-family="Arial" font-size="14.00" fill="#cfffac">calendar/domain/value&#45;objects/slot.ts</text>
</g>
<!-- event/application/ports/event&#45;repository.interface.ts -->
<g id="node6" class="node">
<title>event/application/ports/event&#45;repository.interface.ts</title>
<path fill="none" stroke="#cfffac" d="M339.96,-233.75C339.96,-233.75 35.29,-233.75 35.29,-233.75 31.33,-233.75 27.38,-229.79 27.38,-225.83 27.38,-225.83 27.38,-217.92 27.38,-217.92 27.38,-213.96 31.33,-210 35.29,-210 35.29,-210 339.96,-210 339.96,-210 343.92,-210 347.88,-213.96 347.88,-217.92 347.88,-217.92 347.88,-225.83 347.88,-225.83 347.88,-229.79 343.92,-233.75 339.96,-233.75"/>
<text text-anchor="middle" x="187.62" y="-216.45" font-family="Arial" font-size="14.00" fill="#cfffac">event/application/ports/event&#45;repository.interface.ts</text>
</g>
<!-- event/application/ports/venue&#45;availability&#45;service.interface.ts -->
<g id="node7" class="node">
<title>event/application/ports/venue&#45;availability&#45;service.interface.ts</title>
<path fill="none" stroke="#cfffac" d="M367.33,-275.75C367.33,-275.75 7.92,-275.75 7.92,-275.75 3.96,-275.75 0,-271.79 0,-267.83 0,-267.83 0,-259.92 0,-259.92 0,-255.96 3.96,-252 7.92,-252 7.92,-252 367.33,-252 367.33,-252 371.29,-252 375.25,-255.96 375.25,-259.92 375.25,-259.92 375.25,-267.83 375.25,-267.83 375.25,-271.79 371.29,-275.75 367.33,-275.75"/>
<text text-anchor="middle" x="187.62" y="-258.45" font-family="Arial" font-size="14.00" fill="#cfffac">event/application/ports/venue&#45;availability&#45;service.interface.ts</text>
</g>
<!-- event/application/ports/venue&#45;repository.interface.ts -->
<g id="node8" class="node">
<title>event/application/ports/venue&#45;repository.interface.ts</title>
<path fill="none" stroke="#cfffac" d="M341.83,-317.75C341.83,-317.75 33.42,-317.75 33.42,-317.75 29.46,-317.75 25.5,-313.79 25.5,-309.83 25.5,-309.83 25.5,-301.92 25.5,-301.92 25.5,-297.96 29.46,-294 33.42,-294 33.42,-294 341.83,-294 341.83,-294 345.79,-294 349.75,-297.96 349.75,-301.92 349.75,-301.92 349.75,-309.83 349.75,-309.83 349.75,-313.79 345.79,-317.75 341.83,-317.75"/>
<text text-anchor="middle" x="187.62" y="-300.45" font-family="Arial" font-size="14.00" fill="#cfffac">event/application/ports/venue&#45;repository.interface.ts</text>
</g>
<!-- event/application/usecases/create&#45;event.usecase.ts -->
<g id="node9" class="node">
<title>event/application/usecases/create&#45;event.usecase.ts</title>
<path fill="none" stroke="#cfffac" d="M342.21,-359.75C342.21,-359.75 33.04,-359.75 33.04,-359.75 29.08,-359.75 25.12,-355.79 25.12,-351.83 25.12,-351.83 25.12,-343.92 25.12,-343.92 25.12,-339.96 29.08,-336 33.04,-336 33.04,-336 342.21,-336 342.21,-336 346.17,-336 350.12,-339.96 350.12,-343.92 350.12,-343.92 350.12,-351.83 350.12,-351.83 350.12,-355.79 346.17,-359.75 342.21,-359.75"/>
<text text-anchor="middle" x="187.62" y="-342.45" font-family="Arial" font-size="14.00" fill="#cfffac">event/application/usecases/create&#45;event.usecase.ts</text>
</g>
<!-- event/domain/enums/event&#45;status.ts -->
<g id="node10" class="node">
<title>event/domain/enums/event&#45;status.ts</title>
<path fill="none" stroke="#cfffac" d="M671.71,-443.75C671.71,-443.75 453.29,-443.75 453.29,-443.75 449.33,-443.75 445.38,-439.79 445.38,-435.83 445.38,-435.83 445.38,-427.92 445.38,-427.92 445.38,-423.96 449.33,-420 453.29,-420 453.29,-420 671.71,-420 671.71,-420 675.67,-420 679.62,-423.96 679.62,-427.92 679.62,-427.92 679.62,-435.83 679.62,-435.83 679.62,-439.79 675.67,-443.75 671.71,-443.75"/>
<text text-anchor="middle" x="562.5" y="-426.45" font-family="Arial" font-size="14.00" fill="#cfffac">event/domain/enums/event&#45;status.ts</text>
</g>
<!-- event/domain/hosted&#45;event.entity.ts -->
<g id="node11" class="node">
<title>event/domain/hosted&#45;event.entity.ts</title>
<path fill="none" stroke="#c6c5fe" d="M294.21,-401.75C294.21,-401.75 81.04,-401.75 81.04,-401.75 77.08,-401.75 73.13,-397.79 73.13,-393.83 73.13,-393.83 73.13,-385.92 73.13,-385.92 73.13,-381.96 77.08,-378 81.04,-378 81.04,-378 294.21,-378 294.21,-378 298.17,-378 302.12,-381.96 302.12,-385.92 302.12,-385.92 302.12,-393.83 302.12,-393.83 302.12,-397.79 298.17,-401.75 294.21,-401.75"/>
<text text-anchor="middle" x="187.62" y="-384.45" font-family="Arial" font-size="14.00" fill="#c6c5fe">event/domain/hosted&#45;event.entity.ts</text>
</g>
<!-- event/domain/hosted&#45;event.entity.ts&#45;&gt;event/domain/enums/event&#45;status.ts -->
<g id="edge1" class="edge">
<title>event/domain/hosted&#45;event.entity.ts&#45;&gt;event/domain/enums/event&#45;status.ts</title>
<path fill="none" stroke="#757575" d="M298.48,-402.25C343.14,-407.28 394.88,-413.11 440.6,-418.26"/>
<polygon fill="#757575" stroke="#757575" points="439.95,-421.71 450.28,-419.35 440.73,-414.75 439.95,-421.71"/>
</g>
<!-- event/domain/value&#45;objects/event&#45;dates.ts -->
<g id="node12" class="node">
<title>event/domain/value&#45;objects/event&#45;dates.ts</title>
<path fill="none" stroke="#cfffac" d="M689.33,-401.75C689.33,-401.75 435.67,-401.75 435.67,-401.75 431.71,-401.75 427.75,-397.79 427.75,-393.83 427.75,-393.83 427.75,-385.92 427.75,-385.92 427.75,-381.96 431.71,-378 435.67,-378 435.67,-378 689.33,-378 689.33,-378 693.29,-378 697.25,-381.96 697.25,-385.92 697.25,-385.92 697.25,-393.83 697.25,-393.83 697.25,-397.79 693.29,-401.75 689.33,-401.75"/>
<text text-anchor="middle" x="562.5" y="-384.45" font-family="Arial" font-size="14.00" fill="#cfffac">event/domain/value&#45;objects/event&#45;dates.ts</text>
</g>
<!-- event/domain/hosted&#45;event.entity.ts&#45;&gt;event/domain/value&#45;objects/event&#45;dates.ts -->
<g id="edge2" class="edge">
<title>event/domain/hosted&#45;event.entity.ts&#45;&gt;event/domain/value&#45;objects/event&#45;dates.ts</title>
<path fill="none" stroke="#757575" d="M302.53,-389.88C338.39,-389.88 378.5,-389.88 416.24,-389.88"/>
<polygon fill="#757575" stroke="#757575" points="415.83,-393.38 425.83,-389.88 415.83,-386.38 415.83,-393.38"/>
</g>
<!-- event/domain/value&#45;objects/event&#45;place.ts -->
<g id="node13" class="node">
<title>event/domain/value&#45;objects/event&#45;place.ts</title>
<path fill="none" stroke="#cfffac" d="M688.96,-359.75C688.96,-359.75 436.04,-359.75 436.04,-359.75 432.08,-359.75 428.12,-355.79 428.12,-351.83 428.12,-351.83 428.12,-343.92 428.12,-343.92 428.12,-339.96 432.08,-336 436.04,-336 436.04,-336 688.96,-336 688.96,-336 692.92,-336 696.88,-339.96 696.88,-343.92 696.88,-343.92 696.88,-351.83 696.88,-351.83 696.88,-355.79 692.92,-359.75 688.96,-359.75"/>
<text text-anchor="middle" x="562.5" y="-342.45" font-family="Arial" font-size="14.00" fill="#cfffac">event/domain/value&#45;objects/event&#45;place.ts</text>
</g>
<!-- event/domain/hosted&#45;event.entity.ts&#45;&gt;event/domain/value&#45;objects/event&#45;place.ts -->
<g id="edge3" class="edge">
<title>event/domain/hosted&#45;event.entity.ts&#45;&gt;event/domain/value&#45;objects/event&#45;place.ts</title>
<path fill="none" stroke="#757575" d="M298.16,-377.55C323.48,-374.7 350.3,-371.69 375.25,-368.88 396.45,-366.49 419.01,-363.94 440.84,-361.48"/>
<polygon fill="#757575" stroke="#757575" points="441.13,-364.97 450.68,-360.37 440.35,-358.02 441.13,-364.97"/>
</g>
<!-- organizer/domain/organizer.entity.ts -->
<g id="node14" class="node">
<title>organizer/domain/organizer.entity.ts</title>
<path fill="none" stroke="#cfffac" d="M294.58,-454.75C294.58,-454.75 80.67,-454.75 80.67,-454.75 76.71,-454.75 72.75,-450.79 72.75,-446.83 72.75,-446.83 72.75,-438.92 72.75,-438.92 72.75,-434.96 76.71,-431 80.67,-431 80.67,-431 294.58,-431 294.58,-431 298.54,-431 302.5,-434.96 302.5,-438.92 302.5,-438.92 302.5,-446.83 302.5,-446.83 302.5,-450.79 298.54,-454.75 294.58,-454.75"/>
<text text-anchor="middle" x="187.62" y="-437.45" font-family="Arial" font-size="14.00" fill="#cfffac">organizer/domain/organizer.entity.ts</text>
</g>
<!-- venue/domain/value&#45;objects/adress.ts -->
<g id="node15" class="node">
<title>venue/domain/value&#45;objects/adress.ts</title>
<path fill="none" stroke="#cfffac" d="M676.21,-527.75C676.21,-527.75 448.79,-527.75 448.79,-527.75 444.83,-527.75 440.88,-523.79 440.88,-519.83 440.88,-519.83 440.88,-511.92 440.88,-511.92 440.88,-507.96 444.83,-504 448.79,-504 448.79,-504 676.21,-504 676.21,-504 680.17,-504 684.12,-507.96 684.12,-511.92 684.12,-511.92 684.12,-519.83 684.12,-519.83 684.12,-523.79 680.17,-527.75 676.21,-527.75"/>
<text text-anchor="middle" x="562.5" y="-510.45" font-family="Arial" font-size="14.00" fill="#cfffac">venue/domain/value&#45;objects/adress.ts</text>
</g>
<!-- venue/domain/value&#45;objects/weekly&#45;schedule.ts -->
<g id="node16" class="node">
<title>venue/domain/value&#45;objects/weekly&#45;schedule.ts</title>
<path fill="none" stroke="#cfffac" d="M705.83,-485.75C705.83,-485.75 419.17,-485.75 419.17,-485.75 415.21,-485.75 411.25,-481.79 411.25,-477.83 411.25,-477.83 411.25,-469.92 411.25,-469.92 411.25,-465.96 415.21,-462 419.17,-462 419.17,-462 705.83,-462 705.83,-462 709.79,-462 713.75,-465.96 713.75,-469.92 713.75,-469.92 713.75,-477.83 713.75,-477.83 713.75,-481.79 709.79,-485.75 705.83,-485.75"/>
<text text-anchor="middle" x="562.5" y="-468.45" font-family="Arial" font-size="14.00" fill="#cfffac">venue/domain/value&#45;objects/weekly&#45;schedule.ts</text>
</g>
<!-- venue/domain/venue.entity.ts -->
<g id="node17" class="node">
<title>venue/domain/venue.entity.ts</title>
<path fill="none" stroke="#c6c5fe" d="M275.46,-517.75C275.46,-517.75 99.79,-517.75 99.79,-517.75 95.83,-517.75 91.88,-513.79 91.88,-509.83 91.88,-509.83 91.88,-501.92 91.88,-501.92 91.88,-497.96 95.83,-494 99.79,-494 99.79,-494 275.46,-494 275.46,-494 279.42,-494 283.38,-497.96 283.38,-501.92 283.38,-501.92 283.38,-509.83 283.38,-509.83 283.38,-513.79 279.42,-517.75 275.46,-517.75"/>
<text text-anchor="middle" x="187.62" y="-500.45" font-family="Arial" font-size="14.00" fill="#c6c5fe">venue/domain/venue.entity.ts</text>
</g>
<!-- venue/domain/venue.entity.ts&#45;&gt;venue/domain/value&#45;objects/adress.ts -->
<g id="edge4" class="edge">
<title>venue/domain/venue.entity.ts&#45;&gt;venue/domain/value&#45;objects/adress.ts</title>
<path fill="none" stroke="#757575" d="M283.68,-508.42C327.83,-509.61 381.05,-511.04 429.06,-512.32"/>
<polygon fill="#757575" stroke="#757575" points="428.89,-515.82 438.98,-512.59 429.08,-508.82 428.89,-515.82"/>
</g>
<!-- venue/domain/venue.entity.ts&#45;&gt;venue/domain/value&#45;objects/weekly&#45;schedule.ts -->
<g id="edge5" class="edge">
<title>venue/domain/venue.entity.ts&#45;&gt;venue/domain/value&#45;objects/weekly&#45;schedule.ts</title>
<path fill="none" stroke="#757575" d="M283.68,-497.72C320.94,-494.52 364.66,-490.77 406.26,-487.2"/>
<polygon fill="#757575" stroke="#757575" points="406.46,-490.69 416.13,-486.35 405.87,-483.72 406.46,-490.69"/>
</g>
</g>
</svg>
